PathFileType	4	(X/Y/Z)	Walk7.trc
DataRate	CameraRate	NumFrames	NumMarkers	Units	OrigDataRate	OrigDataStartFrame	OrigNumFrames
200.000000	200.000000	7	61	mm	200.000000	266	437
Frame#	Times		LFHD		RFHD		CLAV		STRN		LASI		RASI		RACR1		RUA1		RFA1		RWRU		RCAR		LACR1		LUA1		LFA1		LWRU		LCAR		RTH3		RTB4		LTH1		LTH3		LTH2		LTH4		LLFC		LTB1		LTB3		LTB2		LTB4		RTB1		RTB3		RMT5		RMFC		LBHD		RWRR		RTH2		RToe		RMT1		LElbow		RLFC		LWRR		RTB2		RMMAL		RTH4		RElbow		LMFC		LToe		LPSI		T10		RBack		RLMAL		RBHD		RTH1		RCAL		RPSI		C7		LElbowM		LMMAL		RElbowM		LLMAL		LCAL		LMT5		LMT1
			X1	Y1	Z1	X2	Y2	Z2	X3	Y3	Z3	X4	Y4	Z4	X5	Y5	Z5	X6	Y6	Z6	X7	Y7	Z7	X8	Y8	Z8	X9	Y9	Z9	X10	Y10	Z10	X11	Y11	Z11	X12	Y12	Z12	X13	Y13	Z13	X14	Y14	Z14	X15	Y15	Z15	X16	Y16	Z16	X17	Y17	Z17	X18	Y18	Z18	X19	Y19	Z19	X20	Y20	Z20	X21	Y21	Z21	X22	Y22	Z22	X23	Y23	Z23	X24	Y24	Z24	X25	Y25	Z25	X26	Y26	Z26	X27	Y27	Z27	X28	Y28	Z28	X29	Y29	Z29	X30	Y30	Z30	X31	Y31	Z31	X32	Y32	Z32	X33	Y33	Z33	X34	Y34	Z34	X35	Y35	Z35	X36	Y36	Z36	X37	Y37	Z37	X38	Y38	Z38	X39	Y39	Z39	X40	Y40	Z40	X41	Y41	Z41	X42	Y42	Z42	X43	Y43	Z43	X44	Y44	Z44	X45	Y45	Z45	X46	Y46	Z46	X47	Y47	Z47	X48	Y48	Z48	X49	Y49	Z49	X50	Y50	Z50	X51	Y51	Z51	X52	Y52	Z52	X53	Y53	Z53	X54	Y54	Z54	X55	Y55	Z55	X56	Y56	Z56	X57	Y57	Z57	X58	Y58	Z58	X59	Y59	Z59	X60	Y60	Z60	X61	Y61	Z61

266	1.33	279.52	1565.9	-69.136	274.31	1571.5	30.216	240.83	1290.1	-9.854	261.8	1154.9	-2.929	203.81	877.73	-114.08	232.94	899.38	133.09	172.27	1326.8	157.75	139.69	1162.8	218.64	136.57	877.36	292.92	193.74	765.34	274.57	171.87	694.84	315.69	167.99	1340	-160.19	172.52	1172.4	-233.29	286.14	922.64	-294.36	396.54	873.93	-268.68	427.13	813.64	-306.48	276.41	584.22	181.43	379.05	264.34	103.97	108	724.5	-166.75	56.486	563.28	-139	135.81	630.56	-137.19	81.318	643.1	-154.8	-1.2758	432.85	-122.01	-28.505	323.79	-60.282	-149.27	204.24	-50.611	-106.09	276.24	-114.05	-91.744	265.31	-55.982	371.25	350.62	113.04	385.55	179.63	91.898	453.93	29.718	112.28	302.62	438.3	20.641	139.54	1497.1	-94.824	129.36	755.84	298.21	296.31	687.97	173.82	536.09	54.99	63	487.24	51.157	33.267	179.37	1019.9	-276.67	328.54	449.96	145.46	349.74	824.22	-280.54	332.63	256.35	142.71	359.86	86.74	22.955	249.94	662.25	202.33	101.16	1002.4	259.34	-14.877	427.79	9.7857	-152.27	21.352	-19.892	40.58	942.77	-13.499	52.565	1184.9	3.6373	52.712	1271.2	65.608	346.68	62.176	101.48	134.46	1511.2	47.417	223.75	742.59	224.72	301.3	32.858	54.662	54.754	942.69	85.717	131.62	1394.2	-10.588	162.61	989.06	-210.02	-240.64	160.25	-12.001	77.727	994.78	183.84	-263.15	153.09	-91.285	-317.4	172.14	-50.792	-224.38	37.253	-78.225	-199.01	37.681	2.4279
267	1.335	287.32	1566.3	-68.83	282.34	1572.1	30.523	249.43	1290.4	-9.1865	270.58	1155.2	-2.0917	212.48	877.39	-113.24	241.26	900.12	133.45	181.1	1326.9	158.5	148.86	1162.9	219.3	145.84	877.33	293.31	202.9	765.28	274.82	181.01	694.81	315.97	176.32	1340.1	-159.54	179.48	1172.2	-232.22	290.98	921.17	-293.47	401.08	871.41	-268.68	430.59	810.66	-306.5	284.7	585.02	181.45	384.21	263.65	103.2	117.94	723.5	-165.97	68.427	561.61	-138.77	146.82	629.83	-136.6	92.245	641.8	-154.25	11.904	430.85	-122.19	-17.429	322.37	-60.616	-140.99	205.69	-51.39	-95.964	276.72	-114.64	-82.012	265.39	-56.584	377.86	350.09	112.17	389.17	178.8	91.225	454.83	28.189	112.11	309.47	438.98	20.822	147.46	1497.1	-94.058	138.5	755.81	298.48	304.71	688.77	174.15	537.48	51.058	61.735	488.25	48.204	32.368	185.31	1019.5	-275.16	336.74	450.48	145.21	353.67	822.13	-279.8	338.38	256.46	142.76	361.18	86.269	22.723	258.3	663.03	202.48	110.47	1002.4	259.89	-1.6468	425.51	9.5283	-151.56	20.939	-20.029	49.019	942.75	-13.76	61.132	1185.1	4.2768	61.391	1271.4	66.513	348.31	62.013	101.45	142.7	1511.4	48.163	232.09	743.3	225.1	301.88	33.536	54.998	63.055	943.18	85.575	140.16	1394.4	-9.746	168.88	989.02	-208.34	-233.53	163.95	-13.339	86.896	994.85	184.37	-255.78	157.44	-92.638	-309.17	178.76	-52.575	-221.43	39.949	-78.895	-196.8	39.597	1.7313
268	1.34	295.12	1566.8	-68.504	290.36	1572.6	30.852	258.01	1290.8	-8.5477	279.3	1155.6	-1.2837	221.06	877.12	-112.4	249.52	900.96	133.81	189.96	1327.1	159.23	158.09	1163	219.93	155.23	877.36	293.68	212.21	765.28	275.04	190.32	694.83	316.22	184.68	1340.2	-158.91	186.43	1172.1	-231.13	295.63	919.69	-292.53	405.38	868.8	-268.66	433.74	807.57	-306.49	292.76	585.79	181.59	389.15	262.96	102.53	127.96	722.48	-165.21	80.627	559.9	-138.54	158	629.14	-135.98	103.34	640.46	-153.71	25.465	428.77	-122.34	-5.9781	320.99	-60.848	-132.28	207.25	-52.062	-85.388	277.2	-115.15	-71.88	265.54	-57.082	384.25	349.52	111.39	392.59	177.98	90.637	455.62	26.913	112.08	316.12	439.65	21.066	155.39	1497.1	-93.29	147.8	755.83	298.75	312.92	689.51	174.67	538.71	47.493	60.644	489.13	45.57	31.611	191.14	1019.2	-273.6	344.8	450.98	145.01	357.33	820	-279	343.93	256.55	142.9	362.36	85.882	22.566	266.41	663.78	202.73	119.87	1002.4	260.44	11.936	423.19	9.3431	-150.45	20.539	-20.277	57.373	942.75	-14.069	69.637	1185.4	4.8855	70.057	1271.7	67.416	349.79	61.885	101.47	150.96	1511.6	48.909	240.19	743.99	225.57	302.41	34.181	55.365	71.26	943.68	85.373	148.72	1394.7	-8.9341	175.07	989.06	-206.59	-225.97	167.77	-14.591	96.136	994.98	184.88	-247.9	161.92	-93.902	-300.43	185.47	-54.276	-217.97	42.96	-79.622	-194.03	41.772	0.93739
269	1.345	302.92	1567.3	-68.156	298.38	1573.2	31.203	266.58	1291.1	-7.9425	287.95	1156	-0.51506	229.55	876.92	-111.59	257.72	901.88	134.17	198.85	1327.4	159.92	167.39	1163.1	220.54	164.74	877.44	294.03	221.66	765.35	275.22	199.79	694.91	316.44	193.05	1340.4	-158.3	193.4	1172	-230.03	300.11	918.21	-291.55	409.45	866.11	-268.61	436.58	804.39	-306.44	300.57	586.51	181.84	393.86	262.24	101.93	138.07	721.45	-164.48	93.061	558.17	-138.31	169.33	628.48	-135.34	114.59	639.09	-153.17	39.377	426.65	-122.45	5.832	319.67	-60.967	-123.14	208.91	-52.616	-74.368	277.69	-115.56	-61.353	265.78	-57.464	390.39	348.9	110.7	395.8	177.18	90.125	456.3	25.868	112.18	322.58	440.28	21.365	163.35	1497.1	-92.525	157.26	755.92	299.02	320.94	690.2	175.37	539.77	44.297	59.727	489.88	43.25	30.988	196.87	1019	-272	352.67	451.46	144.84	360.73	817.84	-278.14	349.23	256.59	143.09	363.42	85.568	22.47	274.29	664.48	203.07	129.35	1002.6	260.98	25.839	420.89	9.2389	-148.84	20.182	-20.658	65.645	942.77	-14.415	78.076	1185.8	5.4647	78.705	1272	68.315	351.11	61.782	101.55	159.23	1511.7	49.654	248.04	744.64	226.11	302.89	34.777	55.744	79.373	944.18	85.12	157.27	1395.1	-8.155	181.2	989.16	-204.77	-217.92	171.72	-15.735	105.44	995.16	185.38	-239.53	166.49	-95.058	-291.16	192.22	-55.867	-213.94	46.271	-80.396	-190.63	44.193	0.049743
270	1.35	310.74	1567.8	-67.789	306.41	1573.8	31.574	275.12	1291.5	-7.3752	296.52	1156.4	0.20458	237.95	876.79	-110.79	265.86	902.88	134.54	207.76	1327.7	160.58	176.74	1163.3	221.12	174.38	877.59	294.37	231.25	765.48	275.35	209.45	695.05	316.62	201.43	1340.6	-157.7	200.37	1171.9	-228.93	304.4	916.74	-290.52	413.28	863.35	-268.52	439.12	801.13	-306.35	308.14	587.16	182.16	398.31	261.51	101.43	148.24	720.41	-163.77	105.7	556.44	-138.09	180.79	627.88	-134.69	125.97	637.72	-152.64	53.607	424.51	-122.5	17.984	318.44	-60.968	-113.57	210.67	-53.043	-62.919	278.19	-115.87	-50.44	266.11	-57.72	396.24	348.25	110.14	398.8	176.38	89.684	456.89	25.034	112.38	328.88	440.85	21.712	171.34	1497.1	-91.769	166.88	756.06	299.29	328.77	690.81	176.23	540.68	41.464	58.971	490.52	41.235	30.484	202.51	1018.8	-270.37	360.3	451.86	144.72	363.87	815.67	-277.22	354.24	256.57	143.33	364.34	85.318	22.422	281.93	665.13	203.48	138.9	1002.7	261.53	40.028	418.63	9.221	-146.64	19.9	-21.194	73.835	942.81	-14.789	86.447	1186.3	6.0157	87.331	1272.5	69.207	352.28	61.696	101.67	167.51	1511.9	50.393	255.66	745.23	226.71	303.32	35.317	56.122	87.398	944.68	84.827	165.83	1395.5	-7.4105	187.25	989.32	-202.89	-209.39	175.75	-16.75	114.8	995.4	185.87	-230.64	171.13	-96.087	-281.39	198.96	-57.316	-209.26	49.859	-81.206	-186.52	46.842	-0.92421
271	1.355	318.57	1568.4	-67.402	314.43	1574.5	31.966	283.62	1291.9	-6.8499	305	1156.8	0.86646	246.25	876.73	-110.02	273.96	903.94	134.93	216.69	1328.1	161.19	186.14	1163.6	221.68	184.12	877.78	294.69	240.97	765.68	275.43	219.27	695.24	316.76	209.79	1340.9	-157.13	207.34	1171.9	-227.83	308.53	915.27	-289.45	416.88	860.52	-268.4	441.36	797.8	-306.22	315.46	587.76	182.55	402.49	260.77	101.02	158.47	719.4	-163.1	118.53	554.73	-137.87	192.36	627.35	-134.04	137.47	636.37	-152.13	68.115	422.38	-122.51	30.459	317.31	-60.85	-103.57	212.53	-53.335	-51.059	278.71	-116.07	-39.15	266.56	-57.845	401.79	347.55	109.69	401.58	175.61	89.306	457.38	24.384	112.64	335.02	441.34	22.099	179.34	1497.2	-91.027	176.66	756.25	299.56	336.41	691.34	177.22	541.45	38.984	58.361	491.05	39.51	30.081	208.06	1018.7	-268.71	367.62	452.18	144.66	366.77	813.48	-276.23	358.93	256.51	143.59	365.15	85.122	22.414	289.33	665.72	203.95	148.51	1003	262.06	54.463	416.45	9.2916	-143.75	19.733	-21.9	81.947	942.88	-15.178	94.746	1186.8	6.5391	95.929	1273	70.088	353.31	61.622	101.81	175.79	1512.1	51.123	263.06	745.78	227.36	303.69	35.792	56.488	95.344	945.19	84.503	174.38	1395.9	-6.701	193.24	989.55	-200.96	-200.37	179.86	-17.613	124.2	995.69	186.36	-221.24	175.81	-96.976	-271.12	205.62	-58.597	-203.88	53.688	-82.038	-181.62	49.691	-1.9731
272	1.36	326.41	1569	-66.997	322.45	1575.1	32.376	292.09	1292.3	-6.3703	313.4	1157.1	1.4627	254.45	876.74	-109.29	282	905.06	135.33	225.61	1328.5	161.76	195.57	1163.8	222.21	193.98	878.02	295	250.82	765.93	275.47	229.26	695.48	316.86	218.12	1341.2	-156.59	214.33	1172	-226.73	312.5	913.83	-288.34	420.25	857.64	-268.23	443.3	794.41	-306.03	322.51	588.27	183	406.39	260.01	100.71	168.75	718.43	-162.47	131.49	553.08	-137.66	204.02	626.92	-133.4	149.06	635.05	-151.64	82.865	420.31	-122.46	43.24	316.32	-60.617	-93.14	214.49	-53.491	-38.809	279.26	-116.16	-27.496	267.12	-57.839	407.02	346.82	109.38	404.13	174.85	88.991	457.78	23.894	112.95	341.01	441.75	22.518	187.37	1497.3	-90.302	186.59	756.49	299.83	343.87	691.76	178.32	542.1	36.841	57.878	491.48	38.056	29.761	213.53	1018.6	-267.02	374.58	452.38	144.67	369.43	811.29	-275.18	363.28	256.39	143.86	365.84	84.974	22.436	296.5	666.25	204.46	158.18	1003.2	262.6	69.106	414.4	9.4494	-140.07	19.718	-22.785	89.987	942.99	-15.573	102.97	1187.4	7.0347	104.49	1273.6	70.954	354.19	61.557	101.97	184.07	1512.2	51.841	270.25	746.28	228.03	304.01	36.199	56.836	103.22	945.69	84.161	182.91	1396.4	-6.0268	199.16	989.83	-198.99	-190.84	184.01	-18.31	133.64	996.01	186.86	-211.34	180.49	-97.713	-260.4	212.15	-59.683	-197.74	57.717	-82.883	-175.86	52.709	-3.0821
